<?xml version="1.0" ?><svg viewBox="0 0 24 24" xmlns="http://www.w3.org/2000/svg"><title/><g id="Ubuntu"><g data-name="&lt;Group&gt;" id="_Group_"><circle cx="2.5" cy="12" data-name="&lt;Path&gt;" id="_Path_" r="2" style="fill:none;stroke:#303c42;stroke-linecap:round;stroke-linejoin:round"/><circle cx="19.5" cy="2.5" data-name="&lt;Path&gt;" id="_Path_2" r="2" style="fill:none;stroke:#303c42;stroke-linecap:round;stroke-linejoin:round"/><circle cx="19.5" cy="21.5" data-name="&lt;Path&gt;" id="_Path_3" r="2" style="fill:none;stroke:#303c42;stroke-linecap:round;stroke-linejoin:round"/><path d="M8.5,12a5.48,5.48,0,0,1,1.93-4.18l-2-3.49A9.53,9.53,0,0,0,5,8.92a3.95,3.95,0,0,1,0,6.15,9.53,9.53,0,0,0,3.39,4.6l2-3.49A5.48,5.48,0,0,1,8.5,12Z" data-name="&lt;Path&gt;" id="_Path_4" style="fill:none;stroke:#303c42;stroke-linecap:round;stroke-linejoin:round"/><path d="M19.5,6.5a4,4,0,0,1-4-3.87A9.56,9.56,0,0,0,14,2.5a9.45,9.45,0,0,0-3.86.82l2,3.5A5.48,5.48,0,0,1,14,6.5,5.56,5.56,0,0,1,19.46,11h4a9.39,9.39,0,0,0-2.11-5A4,4,0,0,1,19.5,6.5Z" data-name="&lt;Path&gt;" id="_Path_5" style="fill:none;stroke:#303c42;stroke-linecap:round;stroke-linejoin:round"/><path d="M19.5,17.5a4,4,0,0,1,1.89.5,9.39,9.39,0,0,0,2.11-5h-4A5.56,5.56,0,0,1,14,17.5a5.48,5.48,0,0,1-1.84-.32l-2,3.5A9.45,9.45,0,0,0,14,21.5a9.56,9.56,0,0,0,1.51-.13A4,4,0,0,1,19.5,17.5Z" data-name="&lt;Path&gt;" id="_Path_6" style="fill:none;stroke:#303c42;stroke-linecap:round;stroke-linejoin:round"/></g></g></svg>